<svg xmlns="http://www.w3.org/2000/svg" width="114" height="114" viewBox="0 0 114 114">
  <g id="_01_material_feel" data-name="01_material_feel" transform="translate(-827 -93)">
    <rect id="Rectangle_17" data-name="Rectangle 17" width="114" height="114" transform="translate(827 93)" fill="none"/>
    <g id="Group_1" data-name="Group 1" transform="translate(-367.928 -1514.249)">
      <path id="Path_1" data-name="Path 1" d="M1296.189,1661.4l.078-36.419-18.176-3.255-62.625,19.951,17.678,4.448a.911.911,0,1,1-.444,1.766l-20.78-5.227a.911.911,0,0,1-.054-1.751l65.886-20.992a.95.95,0,0,1,.437-.028l19.151,3.43a.91.91,0,0,1,.75.9l-.08,37.181" transform="translate(-0.027 0)"/>
      <path id="Path_2" data-name="Path 2" d="M1302.041,1665.487a.9.9,0,0,1-.211-.025l-34.5-8.194a.91.91,0,1,1,.421-1.772l34.5,8.194a.91.91,0,0,1-.209,1.8Z" transform="translate(-4.968 -3.174)"/>
      <path id="Path_3" data-name="Path 3" d="M1247.487,1645.137a.911.911,0,0,1-.209-1.8l35.754-8.448a.918.918,0,0,1,1.084.634c.038.131.913,3.246-1.034,5.334a.911.911,0,0,1-1.332-1.243,3.576,3.576,0,0,0,.753-2.727l-34.807,8.224A.977.977,0,0,1,1247.487,1645.137Z" transform="translate(-3.179 -1.337)"/>
      <path id="Path_4" data-name="Path 4" d="M1278,1648.724a.911.911,0,0,1-.257-1.784c3.36-.989,3.88-3.384,3.887-4.742l-27.294,6.4a.911.911,0,1,1-.416-1.773l28.312-6.64a.926.926,0,0,1,.7.119.914.914,0,0,1,.4.581,6.663,6.663,0,0,1-5.075,7.8A.905.905,0,0,1,1278,1648.724Z" transform="translate(-3.772 -1.809)"/>
      <path id="Path_5" data-name="Path 5" d="M1245.054,1702.826a.878.878,0,0,1-.3-.053l-21.5-7.616a.91.91,0,0,1-.517-1.25l8.434-17.725c-.1-4.087-.544-31.208,5.6-34.716,3.441-1.967,10.355-3.528,19.107-5.505,5.082-1.148,10.842-2.448,16.884-4.045a.913.913,0,0,1,1.1.591c.04.119.963,2.948-.618,4.833a.911.911,0,0,1-1.4-1.17,2.971,2.971,0,0,0,.46-2.25c-5.735,1.494-11.187,2.726-16.025,3.819-8.6,1.943-15.4,3.478-18.605,5.309-4.006,2.289-4.992,21.643-4.674,33.3a.915.915,0,0,1-.088.416l-8.094,17.01,19.889,7.045c1.978-2.889,10.753-15.771,12.507-19.28,1.6-3.2,4.145-20.729,4.989-27.212a.912.912,0,0,1,.715-.774,49.775,49.775,0,0,0,8.868-2.719c1.6-.8,2.353-2.719,2.689-4.03l-16.2,4.324a.91.91,0,1,1-.47-1.759l17.594-4.7a.911.911,0,0,1,1.142.961c-.019.209-.494,5.108-3.94,6.831a46.555,46.555,0,0,1-8.676,2.733c-.515,3.864-3.183,23.358-5.083,27.157-2.026,4.053-12.582,19.422-13.03,20.074A.912.912,0,0,1,1245.054,1702.826Z" transform="translate(-1.045 -1.071)"/>
      <path id="Path_6" data-name="Path 6" d="M1222.721,1689.532l29.718,12.446-5.88,11.376a4.249,4.249,0,0,1-5.386,1.891l-21.791-9.507a4.25,4.25,0,0,1-2.178-5.766Z" transform="translate(-0.522 -6.212)" fill="#8800c2"/>
      <path id="Path_7" data-name="Path 7" d="M1303.1,1691.844l-36.185-11.05a.91.91,0,0,1,.532-1.742l33.812,10.324-.185-23.88a.911.911,0,0,1,.9-.918h.007a.912.912,0,0,1,.911.9Z" transform="translate(-4.936 -3.987)"/>
      <path id="Path_8" data-name="Path 8" d="M1228.064,1668.536a.894.894,0,0,1-.264-.039l-16.872-5.12v-19.493a.911.911,0,0,1,1.822,0v18.143l15.578,4.726a.911.911,0,0,1-.264,1.782Z" transform="translate(0 -2.06)"/>
    </g>
  </g>
</svg>
