<svg xmlns="http://www.w3.org/2000/svg" width="114" height="114" viewBox="0 0 114 114">
  <g id="_04_cover" data-name="04_cover" transform="translate(-831 -372)">
    <rect id="Rectangle_38" data-name="Rectangle 38" width="114" height="114" transform="translate(831 372)" fill="none"/>
    <g id="Group_8" data-name="Group 8" transform="translate(483.668 162.477)">
      <path id="Path_26" data-name="Path 26" d="M404.14,250.272" fill="none" stroke="#000" stroke-linecap="round" stroke-linejoin="round" stroke-width="2"/>
      <path id="Path_27" data-name="Path 27" d="M435.833,302.159a.99.99,0,0,1-.647-.239l-2.019-1.714q-.52-.441-1.033-.892a1,1,0,0,1,1.319-1.5q.5.441,1.009.872l2.019,1.715a1,1,0,0,1-.648,1.762Zm-7.4-6.71a1,1,0,0,1-.711-.3c-.941-.951-1.876-1.94-2.779-2.937a1,1,0,0,1,1.484-1.341c.883.975,1.8,1.941,2.717,2.872a1,1,0,0,1-.711,1.7Zm-6.626-7.482a1,1,0,0,1-.784-.379c-.827-1.043-1.649-2.125-2.444-3.217a1,1,0,1,1,1.617-1.176c.779,1.069,1.584,2.13,2.394,3.151a1,1,0,0,1-.783,1.621Zm-5.792-8.146a1,1,0,0,1-.845-.464c-.721-1.135-1.426-2.3-2.1-3.457a1,1,0,0,1,1.733-1c.654,1.135,1.345,2.273,2.051,3.385a1,1,0,0,1-.843,1.536Zm-4.908-8.71a1,1,0,0,1-.9-.557q-.546-1.1-1.062-2.218a1,1,0,1,1,1.814-.841q.505,1.09,1.041,2.173a1,1,0,0,1-.9,1.443Z"/>
      <path id="Path_28" data-name="Path 28" d="M435.833,302.158h-.009a1,1,0,0,1-.991-1c0-.348,0-67.875,0-68.557,0-5.555-4.068-10.075-9.068-10.075H381.4c-5,0-9.068,4.52-9.068,10.075v68.377a1,1,0,0,1-2,0V232.6c0-6.658,4.965-12.075,11.068-12.075h44.367c6.1,0,11.068,5.417,11.068,12.075,0,25.585,0,68.516,0,68.576A1,1,0,0,1,435.833,302.158Z"/>
      <path id="Path_29" data-name="Path 29" d="M423.278,312.784H383.889c-5.48,0-9.938-4.86-9.938-10.832,0,0,0-2.9,0-2.954a1,1,0,0,1,1-.982h.019a1,1,0,0,1,.982,1.019c0,.112,0,2.917,0,2.917,0,4.87,3.561,8.832,7.938,8.832h39.389c4.377,0,7.938-3.962,7.938-8.832v-2.774a1,1,0,0,1,2,0v2.774C433.216,307.924,428.758,312.784,423.278,312.784Z"/>
      <g id="Group_7" data-name="Group 7">
        <path id="Path_30" data-name="Path 30" d="M396.142,272.237a1,1,0,0,1-.885-1.463q.458-.877.9-1.764a1,1,0,0,1,1.792.889q-.45.9-.917,1.8A1,1,0,0,1,396.142,272.237Z"/>
        <path id="Path_31" data-name="Path 31" d="M377.566,296.691a1,1,0,0,1-.679-1.733c.986-.914,1.967-1.868,2.916-2.834a1,1,0,1,1,1.427,1.4c-.971.99-1.975,1.966-2.984,2.9A.993.993,0,0,1,377.566,296.691Zm7.114-7.421a1,1,0,0,1-.761-1.648c.873-1.026,1.737-2.088,2.567-3.158a1,1,0,0,1,1.58,1.227c-.848,1.093-1.731,2.179-2.624,3.227A1,1,0,0,1,384.68,289.27Zm6.208-8.194a1,1,0,0,1-.829-1.558c.752-1.118,1.49-2.271,2.2-3.428a1,1,0,0,1,1.708,1.041c-.72,1.182-1.475,2.361-2.243,3.5A1,1,0,0,1,390.888,281.076Z"/>
        <path id="Path_32" data-name="Path 32" d="M371.333,301.975a1,1,0,0,1-.627-1.779l1.558-1.253a1,1,0,1,1,1.253,1.558l-1.559,1.253A.989.989,0,0,1,371.333,301.975Z"/>
      </g>
      <path id="Path_33" data-name="Path 33" d="M404.14,255.272a1,1,0,0,1-1-1v-2.749a1,1,0,0,1,2,0v2.749A1,1,0,0,1,404.14,255.272Zm0-8.749a1,1,0,0,1-1-1v-4a1,1,0,0,1,2,0v4A1,1,0,0,1,404.14,246.523Zm0-10a1,1,0,0,1-1-1v-4a1,1,0,0,1,2,0v4A1,1,0,0,1,404.14,236.523Zm0-10a1,1,0,0,1-1-1v-4a1,1,0,0,1,2,0v4A1,1,0,0,1,404.14,226.523Z"/>
      <path id="Path_34" data-name="Path 34" d="M409.249,272.725h-10.2l2.148-13.212h5.584Z" fill="#8800c2"/>
      <path id="Path_35" data-name="Path 35" d="M402.665,256.817l-.832-5.645h4.71l-.832,5.645" fill="#8800c2"/>
      <path id="Path_36" data-name="Path 36" d="M432.081,224.117" fill="#8800c2"/>
    </g>
  </g>
</svg>
