<svg xmlns="http://www.w3.org/2000/svg" width="118.537" height="114" viewBox="0 0 118.537 114">
  <g id="_05_cover_type" data-name="05_cover_type" transform="translate(-1196 -372)">
    <rect id="Rectangle_37" data-name="Rectangle 37" width="114" height="114" transform="translate(1198 372)" fill="none"/>
    <g id="Group_9" data-name="Group 9" transform="translate(9.077 -381.44)">
      <path id="Path_37" data-name="Path 37" d="M1273.965,834.868a6.867,6.867,0,0,1-5.434-2.71.785.785,0,0,1-.133-.33l-2.848-18.263c-1.153-3.415-2.346-3.551-4.148-3.757l-.335-.038-67.324-8.1a.794.794,0,0,1,.189-1.577l67.651,8.141c1.973.225,4.015.459,5.494,4.894a.879.879,0,0,1,.032.129l2.828,18.128a5.309,5.309,0,0,0,4.928,1.828l26.812-11.418a4.448,4.448,0,0,1-1.854-1.057,2.9,2.9,0,0,1-.837-2.146l-4.029-15.979c-.863-3.518-2.315-3.986-4.125-4.232l-66.24-9.259a10.264,10.264,0,0,0-3.9.22l-29.337,9.3a3.719,3.719,0,0,0-2.841,3.606v4.243a.794.794,0,1,1-1.588,0v-4.243a5.289,5.289,0,0,1,3.994-5.133l29.337-9.3a11.9,11.9,0,0,1,4.553-.267l66.241,9.259c2.557.349,4.463,1.4,5.448,5.423l4.055,16.084a.8.8,0,0,1,.022.239,1.318,1.318,0,0,0,.377,1.07c.868.88,3,.995,3.679.967a.764.764,0,0,1,.809.618.794.794,0,0,1-.464.9l-29.58,12.6a.746.746,0,0,1-.18.053A7.6,7.6,0,0,1,1273.965,834.868Z"/>
      <path id="Path_38" data-name="Path 38" d="M1263.152,835.074a6.639,6.639,0,0,1-1.232-.115l-71.907-10.324a3.767,3.767,0,0,1-3.09-3.7v-4.849a.794.794,0,1,1,1.588,0v4.849a2.169,2.169,0,0,0,1.764,2.129l71.907,10.324a5.085,5.085,0,0,0,2.746-.228l3.137-1.228a.794.794,0,1,1,.578,1.479l-3.147,1.231A6.652,6.652,0,0,1,1263.152,835.074Z" transform="translate(0 -5.745)"/>
      <path id="Path_39" data-name="Path 39" d="M1282.763,835.4a.793.793,0,0,1-.794-.794V819.648a.794.794,0,1,1,1.588,0V834.6A.794.794,0,0,1,1282.763,835.4Z" transform="translate(-19.6 -6.478)"/>
      <path id="Path_40" data-name="Path 40" d="M1264.641,811.946" transform="translate(-16.027 -5.054)" fill="none" stroke="#000" stroke-linecap="round" stroke-linejoin="round" stroke-width="2"/>
      <path id="Path_41" data-name="Path 41" d="M1211.8,798.74l15.138-5,64.632,8.793s3.191.31,3.592,2.693c.371,2.212,3.264,11.854,4.125,14.09s1.849,2.214,1.849,2.214l-17.37,7.069s-2.92,1.428-3.633-3c-.274-1.7-2.21-13.484-2.21-13.484s.239-5.66-6.973-6.04C1266.65,805.852,1211.8,798.74,1211.8,798.74Z" transform="translate(-5.13 -1.299)" fill="#8700c1"/>
    </g>
  </g>
</svg>
