<svg xmlns="http://www.w3.org/2000/svg" width="114" height="114" viewBox="0 0 114 114">
  <g id="_06_material_type" data-name="06_material_type" transform="translate(-1524 -372)">
    <rect id="Rectangle_36" data-name="Rectangle 36" width="114" height="114" transform="translate(1524 372)" fill="none"/>
    <g id="Group_10" data-name="Group 10" transform="translate(777.46 -376.275)">
      <path id="Path_42" data-name="Path 42" d="M768.359,819.932a.9.9,0,0,1-.292-1.757l15.92-5.464a.9.9,0,0,1,.585,1.709l-15.919,5.463A.92.92,0,0,1,768.359,819.932Z" transform="translate(-0.089 -4.702)"/>
      <path id="Path_43" data-name="Path 43" d="M767.54,819.13v8.1L839.7,844.5l-.106-8.908Z" transform="translate(-0.097 -5.331)" fill="#8800c2"/>
      <path id="Path_44" data-name="Path 44" d="M839.582,805.623a.873.873,0,0,1-.21-.025l-72.14-17.29a.9.9,0,0,1-.692-.878v-4.352h0v-.041h0v0a.9.9,0,0,1,.221-.55.913.913,0,0,1,.426-.274L823.1,764.4a.9.9,0,0,1,.434-.029l16.259,2.912a.9.9,0,0,1,.743.89l-.068,31.547v.034l.013,4.967a.9.9,0,0,1-.9.905Zm-71.237-18.905,70.332,16.857-.008-3.122-70.323-16.24Zm2.507-3.779L838.67,798.6l.063-29.676-15.294-2.739Z"/>
      <path id="Path_45" data-name="Path 45" d="M767.54,796.091" transform="translate(-0.097 -3.089)" fill="none" stroke="#000" stroke-linecap="round" stroke-linejoin="round" stroke-width="2"/>
      <path id="Path_46" data-name="Path 46" d="M847.443,814.082" transform="translate(-7.874 -4.84)" fill="none" stroke="#000" stroke-linecap="round" stroke-linejoin="round" stroke-width="2"/>
      <path id="Path_47" data-name="Path 47" d="M839.582,826.382a.873.873,0,0,1-.21-.025l-72.14-17.33a.9.9,0,0,1-.692-.877v-6.5a.9.9,0,0,1,1.805,0v5.789l70.333,16.9-.012-16.01a.9.9,0,0,1,.9-.9h0a.9.9,0,0,1,.9.9l.013,17.156a.9.9,0,0,1-.9.9Z" transform="translate(0 -3.542)"/>
      <path id="Path_48" data-name="Path 48" d="M839.571,818.56a.874.874,0,0,1-.2-.023L767.24,801.88a.9.9,0,0,1-.071-1.74l18.825-6a.9.9,0,1,1,.548,1.721l-15.691,5,68.922,15.917a.9.9,0,0,1-.2,1.782Z" transform="translate(0 -2.895)"/>
      <path id="Path_49" data-name="Path 49" d="M767.54,819.13" transform="translate(-0.097 -5.331)" fill="none" stroke="#000" stroke-linecap="round" stroke-linejoin="round" stroke-width="2"/>
      <path id="Path_50" data-name="Path 50" d="M847.379,845.229a.9.9,0,0,1-.9-.9l-.033-17.9a.9.9,0,0,1,.9-.9h0a.9.9,0,0,1,.9.9l.032,17.9a.9.9,0,0,1-.9.9Z" transform="translate(-7.777 -5.954)"/>
      <path id="Path_51" data-name="Path 51" d="M847.443,837.583" transform="translate(-7.874 -7.127)" fill="none" stroke="#000" stroke-linecap="round" stroke-linejoin="round" stroke-width="2"/>
      <path id="Path_52" data-name="Path 52" d="M767.54,810.361" transform="translate(-0.097 -4.478)" fill="none" stroke="#000" stroke-linecap="round" stroke-linejoin="round" stroke-width="2"/>
      <path id="Path_53" data-name="Path 53" d="M767.54,822.642" transform="translate(-0.097 -5.673)" fill="none" stroke="#000" stroke-linecap="round" stroke-linejoin="round" stroke-width="2"/>
      <path id="Path_54" data-name="Path 54" d="M847.443,828.352" transform="translate(-7.874 -6.229)" fill="none" stroke="#000" stroke-linecap="round" stroke-linejoin="round" stroke-width="2"/>
    </g>
  </g>
</svg>
