<svg xmlns="http://www.w3.org/2000/svg" width="114" height="114" viewBox="0 0 114 114">
  <g id="_07_usability" data-name="07_usability" transform="translate(-848 -592)">
    <rect id="Rectangle_23" data-name="Rectangle 23" width="114" height="114" transform="translate(848 592)" fill="none"/>
    <g id="Group_11" data-name="Group 11" transform="translate(521.342 -140.011)">
      <path id="Path_55" data-name="Path 55" d="M343.335,824.456a5.634,5.634,0,0,1-4.955-2.46.881.881,0,0,1-.071-.118l-4.039-7.968a.865.865,0,0,1-.082-.245,3.8,3.8,0,0,1-.454-2.7l.431-2.171,12.564-43.286c.262-1.642,1.94-4.556,6.462-4.288,6.3.38,74.156-1.018,75.6-1.048.043,0,.085,0,.128,0a.987.987,0,0,1,.154.029.9.9,0,0,1,.55.452.873.873,0,0,1,.055.135l3.934,11.52a.9.9,0,0,1,.037.431l-7.689,47.507a4.184,4.184,0,0,1-4.353,4.208l-77.84-.01C343.618,824.452,343.474,824.456,343.335,824.456Zm-3.466-3.449a4.037,4.037,0,0,0,3.851,1.654l77.884.009c1.089,0,2.421-.457,2.582-2.632l7.662-47.362-2.74-8.024-8.068,46.462a4.849,4.849,0,0,1-4.631,4.191H336.978ZM352.6,762.984c-3.561,0-4.066,2.541-4.113,2.844a.859.859,0,0,1-.026.118L335.9,809.213l-.413,2.1a2.022,2.022,0,0,0,.392,1.661,1.407,1.407,0,0,0,1.091.548H416.41a3.074,3.074,0,0,0,2.871-2.711l8.48-48.832c-9.143.187-68.636,1.385-74.679,1.023C352.916,762.99,352.754,762.984,352.6,762.984Z" transform="translate(0 -0.447)"/>
      <path id="Path_56" data-name="Path 56" d="M433.948,829.793a.894.894,0,0,1-.785-.465l-4.8-8.793a.893.893,0,1,1,1.566-.856l4.8,8.793a.892.892,0,0,1-.782,1.321Z" transform="translate(-10.163 -6.79)"/>
      <path id="Path_57" data-name="Path 57" d="M376.5,832.81a3.509,3.509,0,0,1-.935-.128c-2.447-.677-4.166-4.133-4.716-9.483a138.575,138.575,0,0,1-.133-18.954.892.892,0,0,1,1.782.092,137.009,137.009,0,0,0,.126,18.679c.458,4.445,1.767,7.489,3.418,7.946,1.158.312,2.713-.722,4.37-2.937a.892.892,0,1,1,1.429,1.068C379.993,831.564,378.2,832.81,376.5,832.81Z" transform="translate(-3.955 -5.091)"/>
      <path id="Path_58" data-name="Path 58" d="M397.807,830.49a3.529,3.529,0,0,1-.86-.108c-2.461-.624-4.255-4.042-4.922-9.378-.711-5.687-1.341-22.743,1.25-39.164a.907.907,0,0,1,1.02-.744.893.893,0,0,1,.743,1.02c-2.56,16.235-1.941,33.062-1.242,38.666.554,4.433,1.93,7.448,3.589,7.868,1.169.3,2.7-.78,4.306-3.031a.893.893,0,1,1,1.453,1.037C401.323,829.2,399.532,830.49,397.807,830.49Z" transform="translate(-6.204 -2.694)"/>
      <path id="Path_59" data-name="Path 59" d="M396.384,771.253a.906.906,0,0,1-.217-.027.892.892,0,0,1-.65-1.082c.287-1.15.594-2.272.91-3.337,2.024-6.811,4.531-10.329,7.662-10.753,3.772-.528,6.616,3.952,6.735,4.142a.893.893,0,0,1-1.514.948c-.023-.037-2.352-3.679-4.986-3.32-1.6.22-3.973,2.044-6.186,9.492-.309,1.04-.609,2.138-.889,3.261A.894.894,0,0,1,396.384,771.253Z" transform="translate(-6.643 0)"/>
      <path id="Path_60" data-name="Path 60" d="M372.582,789.615a.945.945,0,0,1-.1-.005.893.893,0,0,1-.788-.986,113.625,113.625,0,0,1,4.366-21.909c2.172-6.765,4.755-10.227,7.894-10.583,3.787-.423,6.529,4.1,6.643,4.288a.893.893,0,0,1-1.533.914c-.023-.037-2.277-3.741-4.913-3.427-1.6.184-4.016,1.957-6.392,9.355a111.9,111.9,0,0,0-4.292,21.56A.893.893,0,0,1,372.582,789.615Z" transform="translate(-4.086 -0.01)"/>
      <path id="Path_61" data-name="Path 61" d="M371.445,795.526l-6.1-8.027,14.3-.075Z" transform="translate(-3.404 -3.375)" fill="#8800c2"/>
      <path id="Path_62" data-name="Path 62" d="M394.2,776.01l5.624,8.192-14.079-.609Z" transform="translate(-5.596 -2.149)" fill="#8800c2"/>
    </g>
  </g>
</svg>
